<svg width="113" height="56" viewBox="0 0 113 56" fill="none" xmlns="http://www.w3.org/2000/svg">
<path fill-rule="evenodd" clip-rule="evenodd" d="M0 24.298V43.098H16.424V40.438L0 24.298Z" fill="#943495"/>
<path fill-rule="evenodd" clip-rule="evenodd" d="M28.691 43.102H45.1131V24.302L28.6951 40.443L28.691 43.102Z" fill="#943495"/>
<path fill-rule="evenodd" clip-rule="evenodd" d="M45.115 0.995888C44.5207 5.14416 23.09 4.73384 22.605 23.1229C22.12 41.5119 2.0504e-05 0.901886 2.0504e-05 0.901886V20.0219L22.605 42.2429L33 31.9999L45.111 20.1199L45.115 0.995888Z" fill="#B13DB1"/>
<path d="M71.2969 40.8515V31.4374C71.2969 30.7864 70.9583 30.4479 70.2812 30.4218H56.6094C56.1146 30.4479 55.6849 30.6692 55.3203 31.0859C54.9557 31.4765 54.6823 31.9453 54.5 32.4921C54.3438 33.013 54.2656 33.5468 54.2656 34.0937C54.2656 34.6145 54.3438 35.1484 54.5 35.6953C54.6823 36.2161 54.9557 36.6848 55.3203 37.1015C55.6849 37.4921 56.1146 37.6874 56.6094 37.6874H66.6094C67.3385 37.6874 67.9505 37.9479 68.4453 38.4687C68.9661 38.9635 69.2266 39.5755 69.2266 40.3046C69.2266 41.0338 68.9661 41.6458 68.4453 42.1406C67.9505 42.6614 67.3385 42.9218 66.6094 42.9218H56.7656C54.9427 42.8958 53.4323 42.388 52.2344 41.3984C51.0625 40.3828 50.2161 39.2499 49.6953 37.9999C49.2005 36.7239 48.9531 35.4088 48.9531 34.0546C48.9531 32.7525 49.2135 31.4765 49.7344 30.2265C50.2552 28.9505 51.1016 27.8176 52.2734 26.8281C53.4453 25.8124 55.1771 25.2656 57.4688 25.1874H73.875C74.6042 25.1874 75.2292 25.4348 75.75 25.9296C76.2708 26.3984 76.5443 26.9973 76.5703 27.7265V40.8515C76.5703 41.5807 76.2969 42.1926 75.75 42.6874C75.2292 43.1562 74.6042 43.3906 73.875 43.3906C72.3125 43.2604 71.4531 42.414 71.2969 40.8515Z" fill="#B13DB1"/>
<path d="M88.5469 42.9218C86.2552 42.8437 84.5234 42.3098 83.3516 41.3203C82.1797 40.3046 81.3333 39.1718 80.8125 37.9218C80.2917 36.6458 80.0312 35.3567 80.0312 34.0546C80.0312 32.7005 80.2786 31.3984 80.7734 30.1484C81.2943 28.8723 82.1406 27.7395 83.3125 26.7499C84.5104 25.7343 86.0208 25.2135 87.8438 25.1874H100.5C102.323 25.2135 103.82 25.7343 104.992 26.7499C106.19 27.7395 107.036 28.8723 107.531 30.1484C108.052 31.3984 108.312 32.7005 108.312 34.0546C108.312 35.3567 108.052 36.6458 107.531 37.9218C107.01 39.1718 106.164 40.3046 104.992 41.3203C103.82 42.3098 102.089 42.8437 99.7969 42.9218H88.5469ZM87.6875 30.4218C87.1927 30.4218 86.763 30.6301 86.3984 31.0468C86.0339 31.4374 85.7604 31.9062 85.5781 32.4531C85.4219 32.9739 85.3438 33.4947 85.3438 34.0156C85.3438 34.5624 85.4219 35.1093 85.5781 35.6562C85.7604 36.177 86.0339 36.6458 86.3984 37.0624C86.763 37.4531 87.1927 37.6614 87.6875 37.6874H100.656C101.151 37.6614 101.581 37.4531 101.945 37.0624C102.31 36.6458 102.57 36.177 102.727 35.6562C102.909 35.1093 103 34.5624 103 34.0156C103 33.4947 102.909 32.9739 102.727 32.4531C102.57 31.9062 102.31 31.4374 101.945 31.0468C101.581 30.6301 101.151 30.4218 100.656 30.4218H87.6875Z" fill="#AE36AF"/>
<path d="M74 39.5L80.4904 43.5H67.5L74 39.5Z" fill="black"/>
<rect x="54.4138" y="43.1068" width="28.1736" height="1" rx="0.5" transform="rotate(-46.7587 54.4138 43.1068)" fill="black"/>
</svg>
